<mxfile host="app.diagrams.net" modified="2024-07-05T04:13:25.962Z" agent="Mozilla/5.0 (Windows NT 10.0; Win64; x64) AppleWebKit/537.36 (KHTML, like Gecko) Chrome/126.0.0.0 Safari/537.36" version="24.6.4" etag="ISjGDqB7B64Solvy5e2s" type="github">
  <diagram name="หน้า-1" id="BT8EErtaV6Kh2-gM8okv">
    <mxGraphModel>
      <root>
        <mxCell id="0" />
        <mxCell id="1" parent="0" />
      </root>
    </mxGraphModel>
  </diagram>
</mxfile>
